<svg xmlns="http://www.w3.org/2000/svg" viewBox="0 0 64 64">
  <rect x="6" y="6" width="52" height="52" rx="10" fill="#f6f4ef"/>
  <path d="M15 23l17-8 17 8-17 8-17-8z" fill="#3fa796"/>
  <path d="M15 32l17 8 17-8" fill="none" stroke="#3fa796" stroke-width="4" stroke-linecap="round" stroke-linejoin="round"/>
  <path d="M15 41l17 8 17-8" fill="none" stroke="#3fa796" stroke-width="4" stroke-linecap="round" stroke-linejoin="round"/>
  <path d="M20 14l6 6h-4v7h8v-4l6 6-6 6v-4h-8v7h4l-6 6-6-6h4v-7h-8v4l-6-6 6-6v4h8v-7h-4l6-6z" fill="#16324f" opacity="0.92"/>
</svg>
